# xmcd
#
# Track frame offsets: 
#        150
#        15421
#        33090
#        48218
#        62640
#        76810
#        92884
#        108547
#        124648
#        138793
#        154129
#        171396
#        188194
#        206546
#
# Disc length: 2996 seconds
#
# Revision: 1
# Processed by: cddbd v1.5.2PL0 Copyright (c) Steve Scherf et al.
# Submitted via: ExactAudioCopy v0.95a5
#
DISCID=ad0bb20e
DTITLE=Various Artist - HOT HITS COUNTRY VOL. 96
DYEAR=1900
DGENRE=Country
TTITLE0=GEORGE STRAIT - THE BEST DAY
TTITLE1=TRISHA YEARWOOD - REAL LIVE WOMAN
TTITLE2=ANDY GRIGGS - SHE'S MORE
TTITLE3=YANKEE GREY - ANOTHER NINE MINUTES
TTITLE4=FAITH HILL - THE WAY YOU LOVE ME
TTITLE5=JOHN MICHAEL MONTGOMERY - NOTHING CATCHES JESUS BY SURPRISE
TTITLE6=WILKINSONS - JIMMY'S GOT A GIRLFRIEND
TTITLE7=JENNIFER DAY - THE FUN OF YOUR LOVE
TTITLE8=JULIE REEVES - WHAT I NEED
TTITLE9=JERRY KILGORE - THE LOOK
TTITLE10=CHALEE TENNISON - JUST BECAUSE SHE LIVES THERE
TTITLE11=SONYA ISAACS - I'VE FORGOTTEN HOW YOU FEEL
TTITLE12=KENNY CHESNEY - WHAT I NEED TO DO
TTITLE13=VINCE GILL - LET'S MAKE SURE WE KISS GOODBYE
EXTD=
EXTT0=
EXTT1=
EXTT2=
EXTT3=
EXTT4=
EXTT5=
EXTT6=
EXTT7=
EXTT8=
EXTT9=
EXTT10=
EXTT11=
EXTT12=
EXTT13=
PLAYORDER=
